<?xml version="1.0" encoding="UTF-8"?>
<svg version="1.1" xmlns="http://www.w3.org/2000/svg" width="747" height="758">
<path d="M0 0 C0.7131899 -0.00205263 1.4263798 -0.00410527 2.16118151 -0.0062201 C4.54531907 -0.01186383 6.92939838 -0.01043611 9.31354141 -0.00901413 C11.04258326 -0.0115993 12.77162452 -0.01461288 14.50066495 -0.01801753 C19.24823341 -0.02607341 23.99578675 -0.02787632 28.74336123 -0.028615 C33.86567129 -0.03046809 38.98797355 -0.03801687 44.11027908 -0.04475021 C55.31119524 -0.05832554 66.51210781 -0.06435743 77.71303082 -0.06876087 C84.7119409 -0.07152549 91.71084961 -0.07576332 98.70975876 -0.08026505 C118.10052656 -0.09245826 137.49129326 -0.10275643 156.88206482 -0.10614014 C158.74332303 -0.10646949 158.74332303 -0.10646949 160.64218242 -0.10680549 C161.8859451 -0.10702377 163.12970778 -0.10724204 164.41116023 -0.10746694 C166.93137535 -0.1079104 169.45159046 -0.10835696 171.97180557 -0.10880661 C173.22191198 -0.10902804 174.47201839 -0.10924947 175.76000682 -0.10947761 C195.99667032 -0.11342197 216.23329773 -0.13086471 236.46994731 -0.15416613 C257.26362028 -0.17791488 278.05727518 -0.19034364 298.85096192 -0.19150805 C310.51880372 -0.192423 322.18659853 -0.19812959 333.85442734 -0.21632767 C343.79442662 -0.23177647 353.7343644 -0.23682114 363.67437342 -0.22858956 C368.73998878 -0.22469951 373.80548048 -0.22553159 378.8710804 -0.23964691 C383.52136308 -0.25248557 388.17143044 -0.25110201 392.82171324 -0.2390562 C394.49141586 -0.23711626 396.16113427 -0.24009738 397.83081481 -0.24890056 C412.8372919 -0.32292026 427.67694203 1.38421921 442.1793251 5.38142776 C442.95485733 5.59267288 443.73038956 5.803918 444.52942276 6.02156448 C471.84289202 13.72507991 496.98492259 27.63940937 517.6168251 47.13142776 C518.94624459 48.2610501 520.27946228 49.38622088 521.6168251 50.50642776 C536.97030641 63.98678435 548.37515807 81.07909521 557.6168251 99.13142776 C558.10940811 100.0798555 558.10940811 100.0798555 558.61194229 101.04744339 C562.47327907 108.56030555 565.54175108 116.28035789 568.3043251 124.25642776 C568.57784805 125.02382278 568.851371 125.7912178 569.13318253 126.58186722 C574.42058432 142.50159646 576.21797895 158.76958499 576.12475967 175.44734573 C576.12938437 177.29016929 576.13574767 179.13298913 576.14366865 180.97580147 C576.16016999 185.97301749 576.15220438 190.96992297 576.13972378 195.96713924 C576.13059587 201.3823754 576.14468102 206.7975617 576.15564346 212.21278763 C576.17335137 222.79489217 576.16962332 233.37688268 576.1579929 243.95899153 C576.14892827 252.56577579 576.14774763 261.17252828 576.15208817 269.77931595 C576.1527011 271.00821859 576.15331403 272.23712124 576.15394554 273.50326335 C576.15522455 276.00041279 576.1565214 278.49756222 576.1578359 280.99471164 C576.16921906 304.36417614 576.1561636 327.7335777 576.13463444 351.10303187 C576.11676554 371.11839297 576.11987028 391.13364545 576.13830948 411.14900589 C576.15975627 434.43966892 576.16812064 457.73027689 576.15586042 481.02094841 C576.15458634 483.50847879 576.15332886 485.99600918 576.15208817 488.48353958 C576.15147106 489.70718306 576.15085396 490.93082655 576.15021816 492.19155014 C576.14677668 500.77957546 576.15256759 509.36756561 576.16200638 517.95558548 C576.17327015 528.43356904 576.17009473 538.91143287 576.1488834 549.38940287 C576.13843168 554.72676965 576.13414989 560.06393741 576.14748001 565.40130234 C576.15953275 570.30162138 576.15263276 575.20155978 576.1315698 580.10184503 C576.12715762 581.8599874 576.12924605 583.61816296 576.13907295 585.37628341 C576.22685659 602.40860033 573.59590358 619.06597061 567.9918251 635.19392776 C567.48413589 636.68061966 567.48413589 636.68061966 566.96619034 638.19734573 C551.40498603 682.22468255 518.79370811 717.76407281 477.6168251 739.13142776 C476.96310928 739.47657425 476.30939346 739.82172073 475.63586807 740.1773262 C467.21416324 744.57502939 458.61425008 748.02170691 449.5543251 750.88142776 C448.72473282 751.15100296 447.89514053 751.42057816 447.04040909 751.6983223 C423.5350652 758.7375645 399.86425294 758.71895017 375.59046865 758.65432644 C370.4901583 758.64517071 365.38989993 758.65929711 360.28960037 758.67024612 C350.33054284 758.68792507 340.37160667 758.68423912 330.41254461 758.67259556 C322.31024335 758.66351934 314.20797583 758.66235524 306.10567093 758.66669083 C304.94742495 758.66730376 303.78917898 758.66791669 302.59583464 758.6685482 C300.242032 758.66982725 297.88822937 758.6711241 295.53442675 758.67243856 C273.52257093 758.68381324 251.51078203 758.67077969 229.49893719 758.6492371 C210.65913068 758.63136898 191.8194228 758.63447396 172.97961807 758.65291214 C151.04030726 758.67437405 129.10105491 758.68271489 107.16173506 758.67046309 C104.81714981 758.66918904 102.47256455 758.66793156 100.12797928 758.66669083 C98.97474565 758.66607372 97.82151202 758.66545662 96.63333192 758.66482082 C88.5516281 758.66138385 80.46996172 758.66716039 72.3882637 758.67660904 C62.52381509 758.68788975 52.65949359 758.68466243 42.79505932 758.66348606 C37.77323746 758.65305672 32.75162665 758.64871316 27.7298069 758.66208267 C-29.22445423 758.80081099 -77.64444373 744.73095647 -119.3831749 704.13142776 C-132.58934346 690.98082513 -142.83924923 675.64238516 -151.3831749 659.13142776 C-151.69593369 658.53185257 -152.00869247 657.93227737 -152.3309288 657.31453323 C-161.27266682 639.92225668 -166.403007 621.39425672 -169.3831749 602.13142776 C-169.55303018 601.08268445 -169.72288547 600.03394113 -169.89788789 598.95341772 C-170.38480649 595.11857778 -170.51206557 591.45477064 -170.51739597 587.59042835 C-170.5197482 586.86016433 -170.52210043 586.1299003 -170.52452394 585.37750706 C-170.53117054 582.93524106 -170.53075704 580.4930288 -170.53034592 578.05075455 C-170.53364729 576.27990321 -170.53737343 574.50905262 -170.5414874 572.73820299 C-170.55148516 567.87487215 -170.55522063 563.01155364 -170.55787671 558.14821398 C-170.56178658 552.90106155 -170.57136469 547.65391883 -170.58008957 542.40677261 C-170.59983864 529.73315456 -170.60991995 517.05953572 -170.61881736 504.38590613 C-170.62320435 498.41033178 -170.62857024 492.4347583 -170.63380623 486.45918465 C-170.65081985 466.58031937 -170.66531115 446.70145464 -170.67255497 426.8225832 C-170.67446473 421.66552161 -170.67638507 416.50846003 -170.67834091 411.35139847 C-170.67882465 410.06970685 -170.67930839 408.78801523 -170.67980679 407.46748447 C-170.6880963 386.73303195 -170.71341438 365.99863732 -170.74592159 345.26421005 C-170.77906089 323.95183753 -170.79701008 302.63949434 -170.80019921 281.32709593 C-170.80235836 269.37123776 -170.81101918 257.41546393 -170.83666039 245.45963097 C-170.85846172 235.27089881 -170.86637184 225.08227147 -170.8566936 214.89351863 C-170.85217559 209.70370689 -170.85388785 204.51411095 -170.87345505 199.32432938 C-171.05806927 147.42765789 -160.87400391 102.40082499 -126.3831749 62.13142776 C-125.67547958 61.29998245 -124.96778427 60.46853714 -124.23864365 59.61189651 C-96.01626707 27.32142962 -56.44286131 7.63851597 -14.3831749 1.13142776 C-13.33117645 0.96151487 -12.279178 0.79160197 -11.19530082 0.61654019 C-7.41500697 0.13547856 -3.80917097 0.00375067 0 0 Z " fill="#FEFEFE" transform="translate(170.38317489624023,-0.13142776489257813)"/>
<path d="M0 0 C2.71027309 0.0168872 5.42056089 0.02899676 8.13085938 0.04101562 C14.64992806 0.07345285 21.16867212 0.12314018 27.6875 0.1875 C27.85565613 11.0565658 27.8080319 21.61200339 26.0625 32.375 C25.88428711 33.5108252 25.70607422 34.64665039 25.52246094 35.81689453 C16.86225559 88.5620877 -9.51066967 137.05756282 -53.1875 168.875 C-60.6308832 174.19469075 -68.20984892 178.92150445 -76.3125 183.1875 C-76.91175293 183.51024902 -77.51100586 183.83299805 -78.12841797 184.16552734 C-105.29355121 198.74592435 -141.00531206 213.24417658 -172.3125 211.1875 C-172.3125 212.5075 -172.3125 213.8275 -172.3125 215.1875 C-171.6525 215.1875 -170.9925 215.1875 -170.3125 215.1875 C-169.9 216.19425781 -169.4875 217.20101562 -169.0625 218.23828125 C-160.23870566 238.75669554 -145.20137512 254.20765074 -124.50341797 262.86083984 C-97.88893451 273.35026141 -67.17775312 272.10071008 -40.9375 260.9375 C-28.21794989 255.11401471 -17.33797 247.84158234 -6.9453125 238.49609375 C-4.3125 236.1875 -4.3125 236.1875 -3.3125 236.1875 C-3.3125 255.9875 -3.3125 275.7875 -3.3125 296.1875 C-20.72238593 305.4727725 -20.72238593 305.4727725 -30.375 308.5 C-31.41156738 308.83338379 -32.44813477 309.16676758 -33.51611328 309.51025391 C-41.05264994 311.89114383 -48.48908323 313.97900473 -56.3125 315.1875 C-57.59769531 315.38988281 -58.88289062 315.59226562 -60.20703125 315.80078125 C-80.08529662 318.60362359 -100.68042984 318.46181236 -120.3125 314.1875 C-122.22482422 313.78724609 -122.22482422 313.78724609 -124.17578125 313.37890625 C-150.72540255 307.07091809 -175.47209855 290.99710698 -191.828125 269.1640625 C-192.95186079 267.66771958 -194.14800295 266.2254057 -195.375 264.8125 C-197.95822 261.31265355 -199.9143079 257.55195656 -201.9453125 253.7109375 C-203.33343103 251.05713816 -203.33343103 251.05713816 -205.3125 248.1875 C-205.52108736 242.59537214 -204.26244334 237.49622306 -202.1328125 232.37890625 C-200.76950324 228.73692294 -199.98115948 224.95230166 -199.07421875 221.17578125 C-198.03380803 217.09416996 -196.70356898 213.1619828 -195.3125 209.1875 C-194.6525 209.1875 -193.9925 209.1875 -193.3125 209.1875 C-193.2196875 207.516875 -193.2196875 207.516875 -193.125 205.8125 C-192.57639435 201.360957 -190.91412554 197.96773047 -188.76171875 194.0703125 C-187.52344738 191.6071204 -186.52017311 189.20066903 -185.53125 186.6328125 C-183.12491384 180.52559582 -180.1670818 174.74886702 -177.125 168.9375 C-176.25790405 167.27944336 -176.25790405 167.27944336 -175.37329102 165.58789062 C-171.08697714 157.47887363 -166.5562975 149.71969501 -161.3125 142.1875 C-160.86052246 141.52878906 -160.40854492 140.87007812 -159.94287109 140.19140625 C-146.24389031 120.24898348 -131.16929496 101.66236778 -113.99365234 84.60791016 C-112.17435679 82.79943496 -110.3661402 80.98036673 -108.55859375 79.16015625 C-102.10670578 72.70168987 -95.58350753 66.72421125 -88.3125 61.1875 C-87.9825 60.8575 -87.6525 60.5275 -87.3125 60.1875 C-111.73674089 74.86802777 -136.12499028 93.02659288 -154.3125 115.1875 C-155.17359375 116.18394531 -156.0346875 117.18039063 -156.921875 118.20703125 C-166.03994515 128.54961258 -166.03994515 128.54961258 -173.3125 140.1875 C-173.9725 140.1875 -174.6325 140.1875 -175.3125 140.1875 C-175.57546875 140.90808594 -175.8384375 141.62867188 -176.109375 142.37109375 C-177.34304716 145.25900813 -178.81684004 147.64330505 -180.5625 150.25 C-183.58103607 154.91388565 -186.10392267 159.63827119 -188.515625 164.63671875 C-189.92346629 167.41873556 -191.38412757 170.12238028 -192.921875 172.83203125 C-198.72145655 183.05562716 -203.60617728 193.03071223 -207.3125 204.1875 C-207.65023438 205.17363281 -207.98796875 206.15976562 -208.3359375 207.17578125 C-209.01324445 209.17352607 -209.66699258 211.17925469 -210.3125 213.1875 C-210.9725 213.1875 -211.6325 213.1875 -212.3125 213.1875 C-212.3125 215.1675 -212.3125 217.1475 -212.3125 219.1875 C-212.9725 219.1875 -213.6325 219.1875 -214.3125 219.1875 C-214.3125 220.1775 -214.3125 221.1675 -214.3125 222.1875 C-214.9725 222.1875 -215.6325 222.1875 -216.3125 222.1875 C-217.29758778 218.33482214 -218.27450161 214.48011606 -219.25 210.625 C-219.66668945 208.99594727 -219.66668945 208.99594727 -220.09179688 207.33398438 C-220.35927734 206.27373047 -220.62675781 205.21347656 -220.90234375 204.12109375 C-221.14847412 203.15228271 -221.39460449 202.18347168 -221.64819336 201.18530273 C-223.06141556 194.80788435 -223.48991693 188.6273315 -223.55078125 182.125 C-223.5605751 181.26447021 -223.57036896 180.40394043 -223.58045959 179.51733398 C-224.07023048 125.33593424 -224.07023048 125.33593424 -210.3125 103.1875 C-209.71798346 101.69989914 -209.1556049 100.19907689 -208.625 98.6875 C-206.06207366 92.08572088 -202.46365953 85.92005363 -198.3125 80.1875 C-197.6525 80.1875 -196.9925 80.1875 -196.3125 80.1875 C-196.20808594 79.61257812 -196.10367187 79.03765625 -195.99609375 78.4453125 C-191.11070451 62.30956975 -168.03647863 45.92005295 -154.3125 37.1875 C-153.56758301 36.71151367 -152.82266602 36.23552734 -152.05517578 35.74511719 C-131.56333722 22.8860185 -108.83517228 13.75775785 -85.3125 8.1875 C-84.36793945 7.96368652 -83.42337891 7.73987305 -82.45019531 7.50927734 C-55.13801301 1.21716047 -27.93738009 -0.27684908 0 0 Z " fill="#019B41" transform="translate(467.3125,93.8125)"/>
<path d="M0 0 C1.04510742 0.00572021 2.09021484 0.01144043 3.16699219 0.01733398 C20.62250392 0.41624803 35.80203014 7.08143617 48.07495117 19.60595703 C60.4407051 32.99379307 64.25104146 48.52334694 63.73828125 66.46484375 C63.15634348 76.11392617 59.75616152 84.97755238 55.3125 93.5 C54.6525 93.5 53.9925 93.5 53.3125 93.5 C53.085625 94.20125 52.85875 94.9025 52.625 95.625 C47.26653198 107.36259662 34.732117 114.22003979 23.22509766 118.79980469 C6.76095074 124.82727129 -10.18238178 123.66485242 -26.16796875 117.0625 C-36.42740005 111.96342781 -45.77305071 104.42235846 -51.6875 94.5 C-51.6875 93.84 -51.6875 93.18 -51.6875 92.5 C-52.3475 92.5 -53.0075 92.5 -53.6875 92.5 C-54.48663872 90.66991133 -55.27640755 88.83573034 -56.0625 87 C-56.72378906 85.46859375 -56.72378906 85.46859375 -57.3984375 83.90625 C-59.86571667 77.3866517 -61.03310546 71.4463695 -60.9375 64.4375 C-60.93073242 63.70724609 -60.92396484 62.97699219 -60.91699219 62.22460938 C-60.71938794 51.5907437 -60.1197889 40.88468514 -54.6875 31.5 C-54.09001953 30.43265625 -54.09001953 30.43265625 -53.48046875 29.34375 C-44.50293438 14.64853525 -31.16179611 5.33879282 -14.60107422 1.08007812 C-9.72957776 0.11018743 -4.95577715 -0.03187125 0 0 Z " fill="#049B41" transform="translate(623.6875,472.5)"/>
<path d="M0 0 C1.52161743 0.0163147 1.52161743 0.0163147 3.07397461 0.03295898 C20.20873943 0.39770416 34.82977619 6.42682397 46.9921875 18.53125 C50.70285147 22.53920753 53.7950985 26.71105676 56.625 31.375 C57.24375 32.344375 57.8625 33.31375 58.5 34.3125 C60.18339983 38.89508842 60.37477594 43.52583026 60.625 48.375 C61.285 48.375 61.945 48.375 62.625 48.375 C63.14573547 65.50919991 63.02286444 79.07888977 54.625 94.375 C53.965 94.375 53.305 94.375 52.625 94.375 C52.13 96.355 52.13 96.355 51.625 98.375 C50.965 98.375 50.305 98.375 49.625 98.375 C49.35171875 98.96796875 49.0784375 99.5609375 48.796875 100.171875 C43.30889942 110.48926909 30.35751084 116.41581835 19.6875 119.8125 C15.33719265 121.00228285 11.13424022 122.04705526 6.625 122.375 C5.81546875 122.43816406 5.0059375 122.50132812 4.171875 122.56640625 C-13.58417634 123.31837017 -28.51081351 117.41715353 -42.18359375 106.40234375 C-44.54334439 104.21925893 -46.49559132 101.98219792 -48.375 99.375 C-48.375 98.715 -48.375 98.055 -48.375 97.375 C-49.035 97.375 -49.695 97.375 -50.375 97.375 C-51.365 94.405 -51.365 94.405 -52.375 91.375 C-53.035 91.375 -53.695 91.375 -54.375 91.375 C-55.19042431 89.29280951 -56.00223189 87.20920239 -56.8125 85.125 C-57.26496094 83.96484375 -57.71742188 82.8046875 -58.18359375 81.609375 C-59.96017064 76.78640562 -60.4961651 73.03132264 -60.47265625 67.859375 C-60.46943359 66.60898437 -60.46621094 65.35859375 -60.46289062 64.0703125 C-60.45451172 62.76835938 -60.44613281 61.46640625 -60.4375 60.125 C-60.43298828 58.80757812 -60.42847656 57.49015625 -60.42382812 56.1328125 C-60.41204316 52.88016259 -60.39559011 49.62760416 -60.375 46.375 C-59.715 46.375 -59.055 46.375 -58.375 46.375 C-58.49875 45.4675 -58.6225 44.56 -58.75 43.625 C-58.69343213 34.29130095 -51.79308554 26.00026376 -45.64453125 19.6171875 C-44.89558594 18.87726563 -44.14664062 18.13734375 -43.375 17.375 C-42.76011719 16.73820312 -42.14523437 16.10140625 -41.51171875 15.4453125 C-30.47317586 4.80860093 -15.05137428 -0.21966396 0 0 Z " fill="#049C41" transform="translate(343.375,472.625)"/>
<path d="M0 0 C0.94617188 0.42410156 1.89234375 0.84820312 2.8671875 1.28515625 C11.80309871 5.72835864 22.51783659 13.14442234 26 23 C26.0703125 25.05859375 26.0703125 25.05859375 25 27 C22.51530091 28.1389453 20.28325435 28.97782986 17.6875 29.75 C17.01009766 29.97042969 16.33269531 30.19085938 15.63476562 30.41796875 C12.23923912 31.4867464 9.59199487 32 6 32 C4.2890625 30.390625 4.2890625 30.390625 2.625 28.25 C-3.24964389 21.20787931 -9.88945947 17.72170784 -19.02050781 16.79492188 C-32.20264658 15.87293076 -42.26414529 17.62415184 -52.5625 26.5 C-60.0534212 33.4866063 -62.85747979 41.5737694 -63.2578125 51.6953125 C-63.2873435 53.38004814 -63.30551849 55.06502002 -63.3125 56.75 C-63.31789795 57.5538916 -63.3232959 58.3577832 -63.32885742 59.18603516 C-63.20744648 69.39511215 -59.69830242 78.6099781 -52.95703125 86.34375 C-44.76094749 94.11914982 -35.1593975 97.33781733 -24.01171875 97.21875 C-14.51695977 96.5291177 -6.03155474 93.39939043 0.625 86.5 C4.93942308 81.13205128 4.93942308 81.13205128 9 70 C-3.87 70 -16.74 70 -30 70 C-30 63.73 -30 57.46 -30 51 C-9.54 51 10.92 51 32 51 C32 69.74237874 31.83696558 82.18592144 21 97 C20.34 97 19.68 97 19 97 C18.73703125 97.59167969 18.4740625 98.18335938 18.203125 98.79296875 C13.13876978 108.08310089 1.17527619 113.04299758 -8.48828125 116.10546875 C-26.52757774 120.45696383 -44.09702947 118.22572512 -60.09765625 108.91015625 C-68.0882659 103.65119512 -74.19477634 97.31257341 -79 89 C-79 88.34 -79 87.68 -79 87 C-79.66 87 -80.32 87 -81 87 C-81.81604999 85.0848421 -82.62770632 83.16781166 -83.4375 81.25 C-83.88996094 80.18265625 -84.34242188 79.1153125 -84.80859375 78.015625 C-87.35688594 71.56552149 -87.28854128 65.49178077 -87.35009766 58.5949707 C-87.37454004 56.60004112 -87.43110524 54.60558798 -87.48828125 52.61132812 C-87.630773 36.72349826 -81.67244476 24.84543582 -71 13.4375 C-53.17206023 -4.28587707 -23.17957381 -10.59920683 0 0 Z " fill="#059C42" transform="translate(512,477)"/>
<path d="M0 0 C27.06 0 54.12 0 82 0 C82 6.6 82 13.2 82 20 C62.53 20 43.06 20 23 20 C23 29.9 23 39.8 23 50 C40.49 50 57.98 50 76 50 C76 56.6 76 63.2 76 70 C58.84 70 41.68 70 24 70 C24 79.57 24 89.14 24 99 C43.47 99 62.94 99 83 99 C83 105.6 83 112.2 83 119 C55.61 119 28.22 119 0 119 C0 79.73 0 40.46 0 0 Z " fill="#039C43" transform="translate(63,474)"/>
<path d="M0 0 C0.89976562 0.40089844 1.79953125 0.80179687 2.7265625 1.21484375 C11.2489922 5.35602438 19.70836734 12.06255101 25 20 C25 21.32 25 22.64 25 24 C23.56298828 25.37207031 23.56298828 25.37207031 21.5703125 26.578125 C20.85746094 27.01640625 20.14460938 27.4546875 19.41015625 27.90625 C18.65605469 28.3496875 17.90195312 28.793125 17.125 29.25 C16.00544922 29.93835938 16.00544922 29.93835938 14.86328125 30.640625 C9.31431362 34 9.31431362 34 7 34 C6.0828068 32.57325502 5.16583139 31.14636952 4.25 29.71875 C-0.74901342 22.84510655 -8.73885151 18.59268989 -17 17 C-29.29768659 15.96533887 -39.10166641 17.74985152 -48.9375 25.625 C-55.91265111 32.30951982 -59.55345619 42.31091589 -60.30078125 51.83203125 C-60.32160449 58.90499057 -60.18968899 65.27545324 -57.65625 71.984375 C-57 74 -57 74 -57 78 C-56.34 78 -55.68 78 -55 78 C-53.6559907 79.99284138 -52.32458708 81.99419671 -51 84 C-44.96894483 90.86870172 -37.46279173 95.50857731 -28.265625 96.3359375 C-26.92735122 96.36571368 -25.58860116 96.37820316 -24.25 96.375 C-23.54697754 96.37338867 -22.84395508 96.37177734 -22.11962891 96.37011719 C-16.10860349 96.22939545 -11.29273858 94.91557768 -6 92 C-4.948125 91.443125 -3.89625 90.88625 -2.8125 90.3125 C1.14654451 87.05728562 4.0106816 83.13905625 7 79 C11.39383706 80.59623144 15.28995807 82.78024333 19.3125 85.125 C19.95767578 85.49753906 20.60285156 85.87007812 21.26757812 86.25390625 C22.84675945 87.16632213 24.42361864 88.08275509 26 89 C21.9035435 100.06426101 13.19693287 108.00404986 2.6484375 112.9375 C-14.95656308 120.00027309 -32.63972215 119.56330377 -50.2265625 112.75 C-58.08202978 109.17748775 -63.96664089 104.10203149 -70 98 C-70.89525391 97.13761719 -70.89525391 97.13761719 -71.80859375 96.2578125 C-83.79230781 83.74494743 -85.41562988 66.30550894 -85.10546875 49.953125 C-85.07066406 48.64859375 -85.03585938 47.3440625 -85 46 C-84.34 46 -83.68 46 -83 46 C-83.103125 44.741875 -83.20625 43.48375 -83.3125 42.1875 C-83.29436946 30.63834466 -74.88492833 19.81782392 -67.25 11.8125 C-62.53273393 7.28448531 -57.90932363 3.80484798 -52 1 C-50.98164063 0.51402344 -49.96328125 0.02804687 -48.9140625 -0.47265625 C-34.3166317 -6.36083339 -14.22335942 -7.15654835 0 0 Z " fill="#049B41" transform="translate(242,477)"/>
<path d="M0 0 C6.75735789 4.84376982 11.42298854 9.30384349 14.3125 17.25 C15.0859375 18.549375 15.0859375 18.549375 15.875 19.875 C17.75327115 24.284854 17.68092489 27.95420514 17.5625 32.6875 C17.55734375 33.50798828 17.5521875 34.32847656 17.546875 35.17382812 C17.46195013 41.82450697 17.10141623 48.1143843 14.3125 54.25 C13.6525 54.25 12.9925 54.25 12.3125 54.25 C12.126875 54.91 11.94125 55.57 11.75 56.25 C7.8963857 64.2923255 1.28960448 69.52260297 -6.6875 73.25 C-16.74497265 76.69692725 -28.39054282 76.80037738 -38.23046875 72.56640625 C-46.61214265 68.07574789 -51.65742079 62.2200978 -56.6875 54.25 C-57.3475 53.26 -58.0075 52.27 -58.6875 51.25 C-60.89070991 44.93957162 -60.94922884 38.1754992 -61.0625 31.5625 C-61.10141357 30.35110352 -61.10141357 30.35110352 -61.14111328 29.11523438 C-61.15903621 23.29864545 -59.8882649 20.09423457 -56.6875 15.25 C-56.39875 14.425 -56.11 13.6 -55.8125 12.75 C-52.03917618 4.36483596 -43.94041213 -1.22901108 -35.625 -4.625 C-23.84272438 -8.09767071 -10.33820128 -6.48739476 0 0 Z " fill="#FCFEFD" transform="translate(646.6875,498.75)"/>
<path d="M0 0 C9.11570618 6.79608452 14.58457018 14.9556196 16.25 26.26953125 C17.24762168 37.01356524 16.18532314 46.16769731 12.25 56.26953125 C11.59 56.26953125 10.93 56.26953125 10.25 56.26953125 C9.9715625 57.29046875 9.9715625 57.29046875 9.6875 58.33203125 C5.55813679 66.77029519 -2.32008789 70.84703287 -10.75 74.26953125 C-20.78664654 76.94488937 -31.63540654 76.21449972 -40.75 71.26953125 C-41.78125 70.71265625 -42.8125 70.15578125 -43.875 69.58203125 C-47.98748068 66.27416636 -51.55340385 62.47216273 -54.75 58.26953125 C-54.75 57.60953125 -54.75 56.94953125 -54.75 56.26953125 C-55.41 56.26953125 -56.07 56.26953125 -56.75 56.26953125 C-61.47107239 42.78075299 -63.28240707 28.92398273 -57.75 15.26953125 C-55.8125 11.89453125 -55.8125 11.89453125 -53.75 9.26953125 C-53.21375 8.46515625 -52.6775 7.66078125 -52.125 6.83203125 C-38.65729596 -7.69891258 -16.84933733 -10.60263699 0 0 Z " fill="#FDFEFD" transform="translate(366.75,498.73046875)"/>
<path d="M0 0 C1.73508423 -0.00302659 3.47016713 -0.0069186 5.2052477 -0.01159257 C9.93702104 -0.02181605 14.66871813 -0.01970525 19.40049756 -0.01541197 C24.51791698 -0.01293439 29.63531854 -0.02197174 34.75273132 -0.02944946 C44.76492385 -0.04217037 54.77708953 -0.04399337 64.78928878 -0.0416492 C72.93238769 -0.03986278 81.07547849 -0.04162262 89.21857643 -0.04587364 C90.37962092 -0.04646883 91.54066541 -0.04706402 92.73689306 -0.04767724 C95.09593969 -0.04888906 97.45498632 -0.05010319 99.81403295 -0.05131962 C121.9162816 -0.06218534 144.01851497 -0.06003739 166.12076447 -0.05393478 C186.31171987 -0.04876779 206.50262699 -0.06001705 226.69357284 -0.07903299 C247.4558302 -0.09843615 268.21806476 -0.10666297 288.98033124 -0.10290974 C300.62459071 -0.10100129 312.2688091 -0.10345038 323.91306114 -0.11762428 C333.82727681 -0.12957074 343.74142613 -0.13090655 353.65564277 -0.11883412 C358.70712669 -0.11296801 363.75848946 -0.11178275 368.80996513 -0.12383652 C373.44702088 -0.13477213 378.08385544 -0.13150185 382.72090117 -0.11757483 C384.38568179 -0.11494883 386.05048018 -0.11722727 387.71524324 -0.1253107 C402.70639866 -0.19296662 417.5366721 1.51763685 432.02400208 5.51069641 C432.7995343 5.72194153 433.57506653 5.93318665 434.37409973 6.15083313 C461.68422039 13.85340411 486.83539987 27.76582467 507.46150208 47.26069641 C508.87361406 48.47434942 510.29008298 49.68295718 511.71150208 50.88569641 C515.36523579 54.05672141 518.4040656 57.51533673 521.46150208 61.26069641 C518.46150208 61.26069641 518.46150208 61.26069641 517.02400208 59.82710266 C516.50837708 59.1658136 515.99275208 58.50452454 515.46150208 57.82319641 C511.0230846 52.55083828 505.91271069 48.44856475 500.46150208 44.26069641 C499.44443176 43.46663391 498.42736145 42.67257141 497.37947083 41.85444641 C454.59700296 9.3260556 401.87529711 7.92478356 350.43508434 7.99924707 C345.71246488 8.00384919 340.98985901 7.9967502 336.26724243 7.99128723 C327.05853843 7.98247321 317.84986734 7.98427902 308.64116214 7.99011251 C301.14685121 7.99466031 293.65254938 7.99522857 286.15823746 7.99306488 C285.08479594 7.99275841 284.01135442 7.99245195 282.90538437 7.9921362 C280.7235966 7.99149664 278.54180883 7.99084821 276.36002107 7.99019101 C255.9838142 7.98451128 235.60762544 7.99100867 215.23142155 8.00179175 C197.80712945 8.01072766 180.38286401 8.00917027 162.95857239 7.99995422 C142.64382287 7.98921414 122.32908914 7.9850577 102.01433718 7.99117875 C99.84193651 7.99181574 97.66953584 7.99244449 95.49713516 7.99306488 C93.8945153 7.99352771 93.8945153 7.99352771 92.25951927 7.99399988 C84.78681789 7.99571546 77.31412666 7.99283655 69.84142685 7.98810577 C60.71686123 7.98245528 51.59232994 7.98410005 42.46776818 7.99466726 C37.82634183 7.99986813 33.18497241 8.00207805 28.54354668 7.99536896 C-15.0497194 7.93788927 -59.98664443 9.13745158 -98.45207214 32.41889954 C-100.11680869 33.41919988 -101.825068 34.34630786 -103.53849792 35.26069641 C-104.19849792 34.93069641 -104.85849792 34.60069641 -105.53849792 34.26069641 C-76.6175464 10.21882962 -36.93030332 -0.09223019 0 0 Z " fill="#F2F2F2" transform="translate(180.5384979248047,-0.2606964111328125)"/>
<path d="M0 0 C0.66 0 1.32 0 2 0 C1.91098773 0.60009132 1.82197546 1.20018265 1.73026586 1.81845856 C-1.30244449 23.109216 -1.42316917 44.15705521 -1.36285591 65.61693454 C-1.35180224 70.74979893 -1.35839521 75.8826478 -1.36264038 81.01551819 C-1.36823103 91.03063134 -1.35804188 101.04566692 -1.34235242 111.06076688 C-1.32469067 122.74924034 -1.32339061 134.43769939 -1.32273683 146.12618411 C-1.32105442 166.99022657 -1.3053067 187.85423405 -1.28125 208.71826172 C-1.25797371 228.92041311 -1.24382109 249.12254234 -1.24023438 269.32470703 C-1.24001161 270.57036997 -1.23978884 271.8160329 -1.23955932 273.0994432 C-1.23911669 275.60923962 -1.23867467 278.11903604 -1.23823325 280.62883246 C-1.23801369 281.86717255 -1.23779412 283.10551263 -1.2375679 284.38137817 C-1.23735192 285.61678419 -1.23713593 286.85219022 -1.2369134 288.12503278 C-1.23320547 307.44553547 -1.22184864 326.76603464 -1.2094375 346.08653343 C-1.20501779 353.06487835 -1.20157317 360.04322295 -1.19881538 367.02156872 C-1.19436727 378.08777019 -1.18653763 389.15395859 -1.17204097 400.22015184 C-1.16547473 405.26966002 -1.16037469 410.31915683 -1.15958023 415.36866951 C-1.15878443 420.00329158 -1.1532933 424.63788501 -1.14426073 429.27249813 C-1.14178436 430.93621565 -1.14090598 432.59993661 -1.14191952 434.26365566 C-1.1476188 445.87219464 -0.70427399 457.41294766 0 469 C-0.66 469 -1.32 469 -2 469 C-3.88942203 458.2655289 -4.2893344 447.9341302 -4.26742554 437.07081604 C-4.27116939 435.29320949 -4.27577382 433.51560458 -4.28115618 431.73800224 C-4.29331103 426.88853822 -4.29313464 422.03914357 -4.29076743 417.18966782 C-4.29035734 411.94537887 -4.30141674 406.70111159 -4.31088257 401.45683289 C-4.32745294 391.19464537 -4.33299034 380.93248084 -4.33410732 370.67028106 C-4.33505981 362.32174328 -4.33918012 353.97321305 -4.34550858 345.62467766 C-4.36311124 321.91808588 -4.37234913 298.21151217 -4.37084763 274.50491381 C-4.37076772 273.22849001 -4.3706878 271.9520662 -4.37060547 270.63696289 C-4.37052371 269.35896747 -4.37044195 268.08097205 -4.37035771 266.7642495 C-4.36954539 246.06836199 -4.3886719 225.37254737 -4.4168822 204.67668093 C-4.44566707 183.39007788 -4.45941937 162.10351031 -4.45769465 140.81688732 C-4.45703262 128.88073232 -4.46244263 116.9446537 -4.48405075 105.00851631 C-4.50233655 94.84297605 -4.50654957 84.67754677 -4.4930319 74.51199711 C-4.48653904 69.33441647 -4.48625043 64.15704829 -4.5037384 58.97948837 C-4.63021265 19.17616184 -4.63021265 19.17616184 0 0 Z " fill="#F2F2F2" transform="translate(4,140)"/>
<path d="M0 0 C27.06 0 54.12 0 82 0 C82 6.6 82 13.2 82 20 C62.2 20 42.4 20 22 20 C22 19.67 22 19.34 22 19 C41.14 19 60.28 19 80 19 C80 13.39 80 7.78 80 2 C54.26 2 28.52 2 2 2 C2 39.95 2 77.9 2 117 C27.74 117 53.48 117 80 117 C80 112.71 80 108.42 80 104 C80.66 103.34 81.32 102.68 82 102 C82 107.61 82 113.22 82 119 C54.94 119 27.88 119 0 119 C0 79.73 0 40.46 0 0 Z " fill="#1A9A3D" transform="translate(63,474)"/>
<path d="M0 0 C0.99 0.33 1.98 0.66 3 1 C1.61068357 2.44379943 0.21323422 3.87977512 -1.1875 5.3125 C-1.96480469 6.11300781 -2.74210937 6.91351563 -3.54296875 7.73828125 C-6 10 -6 10 -8.34375 11.34375 C-12.20721604 13.75273471 -15.14798217 16.9382474 -18.3125 20.1875 C-18.95767578 20.84169922 -19.60285156 21.49589844 -20.26757812 22.16992188 C-21.84970516 23.77548783 -23.4269513 25.3855469 -25 27 C-25.66 26.67 -26.32 26.34 -27 26 C-23.96168629 22.93683535 -20.92000092 19.87706974 -17.87524414 16.8203125 C-16.84144929 15.78151098 -15.80855649 14.7418109 -14.77661133 13.70117188 C-13.28707427 12.19940781 -11.79424654 10.70098141 -10.30078125 9.203125 C-9.40528564 8.30239258 -8.50979004 7.40166016 -7.5871582 6.47363281 C-5.13589901 4.12993572 -2.80072576 1.91648461 0 0 Z " fill="#0D9333" transform="translate(374,159)"/>
<path d="M0 0 C1.37562854 1.28965176 2.70766393 2.62689293 4 4 C4 4.66 4 5.32 4 6 C4.99 6.33 5.98 6.66 7 7 C8.6484375 8.63671875 8.6484375 8.63671875 10.375 10.6875 C10.98214844 11.40292969 11.58929688 12.11835938 12.21484375 12.85546875 C13.09849609 13.91701172 13.09849609 13.91701172 14 15 C14.51691406 15.61488281 15.03382813 16.22976563 15.56640625 16.86328125 C16.7171727 18.23698821 17.85958928 19.61768397 19 21 C16 21 16 21 14.203125 19.56640625 C1.08701019 6.10927245 1.08701019 6.10927245 0 0 Z " fill="#209D44" transform="translate(273,357)"/>
<path d="M0 0 C1.15941038 3.47823115 0.70820884 5.45895578 0 9 C-0.66 9 -1.32 9 -2 9 C-2 9.99 -2 10.98 -2 12 C-2.66 12 -3.32 12 -4 12 C-5.17571451 8.32589215 -5.07366746 4.83070817 -5 1 C-4.34 1.66 -3.68 2.32 -3 3 C-2.01 2.01 -1.02 1.02 0 0 Z " fill="#1F9D45" transform="translate(255,304)"/>
<path d="M0 0 C0.66 0 1.32 0 2 0 C3.14878332 2.10260341 4.29411192 4.20696539 5.4375 6.3125 C5.76298828 6.90740234 6.08847656 7.50230469 6.42382812 8.11523438 C7.83737384 10.72373626 9.05948633 13.17845899 10 16 C10.99 16.33 11.98 16.66 13 17 C12.34 17.66 11.68 18.32 11 19 C8.25722422 15.80009492 6.3697164 12.99500618 5 9 C4.34 9 3.68 9 3 9 C0 3.375 0 3.375 0 0 Z " fill="#1B993D" transform="translate(567,556)"/>
<path d="M0 0 C0.66 0 1.32 0 2 0 C1.86722656 0.52464844 1.73445313 1.04929687 1.59765625 1.58984375 C-0.31695906 9.9889956 -0.62193532 18.42390121 -1 27 C-1.33 27 -1.66 27 -2 27 C-2.2509727 24.0004227 -2.47621839 21.00242289 -2.6875 18 C-2.76033203 17.16082031 -2.83316406 16.32164062 -2.90820312 15.45703125 C-3.30151309 9.4879742 -2.45848134 5.46048298 0 0 Z " fill="#4CB16A" transform="translate(449,514)"/>
<path d="M0 0 C3 1 3 1 4.625 3.1875 C7.86700945 7.02672172 11.77485565 9.34664047 16 12 C16.99 12.66 17.98 13.32 19 14 C18.67 14.66 18.34 15.32 18 16 C4.71119357 8.09400124 4.71119357 8.09400124 0 2 C0 1.34 0 0.68 0 0 Z " fill="#149432" transform="translate(172,573)"/>
<path d="M0 0 C2.98923954 1.41346395 5.65443778 3.06174394 8.375 4.9375 C11.82477976 7.26966516 15.22260697 9.25658783 19 11 C16 12 16 12 13.4765625 10.92578125 C3.2553468 5.14309347 3.2553468 5.14309347 0 2 C0 1.34 0 0.68 0 0 Z " fill="#149332" transform="translate(583,578)"/>
<path d="M0 0 C0.66 0.33 1.32 0.66 2 1 C-0.52719217 4.45826297 -3.24449528 7.72318357 -6 11 C-6.99 10.67 -7.98 10.34 -9 10 C-6.03 6.7 -3.06 3.4 0 0 Z " fill="#1D9C43" transform="translate(284,156)"/>
<path d="M0 0 C0.66 0.33 1.32 0.66 2 1 C0.3970551 2.29318256 -1.20740142 3.58449156 -2.8125 4.875 C-3.70582031 5.59429687 -4.59914063 6.31359375 -5.51953125 7.0546875 C-8 9 -8 9 -11 11 C-11.66 10.01 -12.32 9.02 -13 8 C-10.880788 6.63594382 -8.75551882 5.28368225 -6.625 3.9375 C-6.02171875 3.54755859 -5.4184375 3.15761719 -4.796875 2.75585938 C-3.23507443 1.77539568 -1.62007786 0.88083925 0 0 Z " fill="#BEE6CF" transform="translate(381,152)"/>
<path d="M0 0 C4.91319147 1.53537234 9.32235164 4.41360843 13 8 C13 8.99 13 9.98 13 11 C12.56429687 10.61328125 12.12859375 10.2265625 11.6796875 9.828125 C8.74229013 7.2594918 5.84286844 4.80917028 2.5625 2.6875 C1.716875 2.130625 0.87125 1.57375 0 1 C0 0.67 0 0.34 0 0 Z " fill="#1C983A" transform="translate(504,495)"/>
<path d="M0 0 C4.51045941 2.46025059 8.18504423 5.60282037 12 9 C11.34 9.66 10.68 10.32 10 11 C9.7525 10.38125 9.505 9.7625 9.25 9.125 C7.75212333 6.57860966 6.65917588 6.17316583 4 5 C1.75 3.5 1.75 3.5 0 2 C0 1.34 0 0.68 0 0 Z " fill="#1F9A3E" transform="translate(519,481)"/>
<path d="M0 0 C1.46726798 3.81489674 0.43336419 6.29011622 -1 10 C-1.66 10 -2.32 10 -3 10 C-3.33 10.99 -3.66 11.98 -4 13 C-3.55966813 7.80408388 -3.11696661 4.33664919 0 0 Z " fill="#3BA85B" transform="translate(267,323)"/>
<path d="M0 0 C0.66 0 1.32 0 2 0 C1.52060632 4.71403788 1.03165952 8.66579301 -1 13 C-1.33 13 -1.66 13 -2 13 C-1.85769192 11.58297487 -1.71099254 10.1663904 -1.5625 8.75 C-1.48128906 7.96109375 -1.40007813 7.1721875 -1.31640625 6.359375 C-1.02365007 4.17635361 -0.57935581 2.1226818 0 0 Z " fill="#39A858" transform="translate(683,547)"/>
<path d="M0 0 C0.66 0 1.32 0 2 0 C1.01 3.96 0.02 7.92 -1 12 C-1.66 11.67 -2.32 11.34 -3 11 C-2.53199289 6.94393835 -2.12046792 3.53411321 0 0 Z " fill="#35A655" transform="translate(183,513)"/>
<path d="M0 0 C1.37562854 1.28965176 2.70766393 2.62689293 4 4 C4 4.66 4 5.32 4 6 C4.99 6.33 5.98 6.66 7 7 C8.6875 9.5625 8.6875 9.5625 10 12 C9.01 12.495 9.01 12.495 8 13 C6.84604289 11.58994275 5.70212534 10.17166542 4.5625 8.75 C3.92441406 7.96109375 3.28632813 7.1721875 2.62890625 6.359375 C1.09494695 4.13752508 0.42869754 2.63256518 0 0 Z " fill="#1B993C" transform="translate(273,357)"/>
<path d="M0 0 C0.66 0 1.32 0 2 0 C1.33501617 4.38889325 -0.18757677 7.9811485 -2 12 C-2.33 12 -2.66 12 -3 12 C-2.49202991 7.6822542 -1.80317221 3.96697886 0 0 Z " fill="#35A551" transform="translate(478,175)"/>
<path d="M0 0 C2.93200474 2.85276137 5.64315404 5.65079784 8 9 C5 9 5 9 2.875 7.3125 C0.83027036 4.79066678 0.35401103 3.18609925 0 0 Z " fill="#2EA34E" transform="translate(312,557)"/>
<path d="M0 0 C0.66 0 1.32 0 2 0 C2.25 2.3125 2.25 2.3125 2 5 C0 6.8125 0 6.8125 -2 8 C-2 4.23312136 -1.76462683 3.08809695 0 0 Z " fill="#27A24F" transform="translate(659,553)"/>
<path d="M0 0 C0.33 0 0.66 0 1 0 C0.67 2.97 0.34 5.94 0 9 C-0.99 9.33 -1.98 9.66 -3 10 C-2.67 7.36 -2.34 4.72 -2 2 C-1.34 2 -0.68 2 0 2 C0 1.34 0 0.68 0 0 Z " fill="#36A758" transform="translate(250,218)"/>
<path d="M0 0 C0.66 0 1.32 0 2 0 C4.21538462 6.4 4.21538462 6.4 3.125 9.4375 C2.75375 9.953125 2.3825 10.46875 2 11 C0.80712589 7.12315913 0 4.08378077 0 0 Z " fill="#37A758" transform="translate(380,514)"/>
<path d="M0 0 C0.33 0 0.66 0 1 0 C1.390625 5.95703125 1.390625 5.95703125 1 8 C-0.32 8.99 -1.64 9.98 -3 11 C-2.01 7.37 -1.02 3.74 0 0 Z " fill="#40AA60" transform="translate(272,303)"/>
<path d="M0 0 C0.66 0 1.32 0 2 0 C1.39009109 3.55780196 0.4216319 6.6828589 -1 10 C-1.33 10 -1.66 10 -2 10 C-2.17942163 6.05272412 -2.09350689 3.4019487 0 0 Z " fill="#3FAA5B" transform="translate(261,288)"/>
<path d="M0 0 C0.33 0 0.66 0 1 0 C0.67 2.97 0.34 5.94 0 9 C-0.66 9 -1.32 9 -2 9 C-2.33 9.66 -2.66 10.32 -3 11 C-2.69078116 9.54096742 -2.37751201 8.08279278 -2.0625 6.625 C-1.88847656 5.81289062 -1.71445313 5.00078125 -1.53515625 4.1640625 C-1 2 -1 2 0 0 Z " fill="#4CB169" transform="translate(253,205)"/>
<path d="M0 0 C1.13643966 3.40931897 0.86747764 4.00335456 -0.4375 7.1875 C-0.86869141 8.26064453 -0.86869141 8.26064453 -1.30859375 9.35546875 C-1.53675781 9.89816406 -1.76492188 10.44085938 -2 11 C-2.33 11 -2.66 11 -3 11 C-2.8864371 9.35333797 -2.75882619 7.70763918 -2.625 6.0625 C-2.55539062 5.14597656 -2.48578125 4.22945312 -2.4140625 3.28515625 C-2.27742188 2.53105469 -2.14078125 1.77695313 -2 1 C-1.34 0.67 -0.68 0.34 0 0 Z " fill="#3AA95A" transform="translate(483,164)"/>
<path d="M0 0 C2.31 1.98 4.62 3.96 7 6 C6.34 6.66 5.68 7.32 5 8 C2.5 5.6875 2.5 5.6875 0 3 C0 2.01 0 1.02 0 0 Z " fill="#279F47" transform="translate(297,572)"/>
<path d="M0 0 C0.33 0 0.66 0 1 0 C2.33928571 8.03571429 2.33928571 8.03571429 0 12 C-0.19477739 10.37585622 -0.38059458 8.75063577 -0.5625 7.125 C-0.66691406 6.22007812 -0.77132813 5.31515625 -0.87890625 4.3828125 C-1 2 -1 2 0 0 Z " fill="#37A555" transform="translate(284,539)"/>
<path d="M0 0 C0.66 0 1.32 0 2 0 C3.85776765 3.13498292 4.20140476 5.37471432 4 9 C1.49701566 6.06171403 0.53069061 3.82097239 0 0 Z " fill="#40AB5F" transform="translate(567,556)"/>
<path d="M0 0 C0.33 0 0.66 0 1 0 C1.33 2.97 1.66 5.94 2 9 C0.68 9.33 -0.64 9.66 -2 10 C-1.34 6.7 -0.68 3.4 0 0 Z " fill="#37A85B" transform="translate(663,541)"/>
<path d="M0 0 C0.66 0.99 1.32 1.98 2 3 C0.625 5.5 0.625 5.5 -1 8 C-1.66 8 -2.32 8 -3 8 C-1.125 2.25 -1.125 2.25 0 0 Z " fill="#3EA859" transform="translate(261,187)"/>
</svg>
